<?xml version="1.0" encoding="UTF-8"?>
<svg id="Layer_1" data-name="Layer 1" xmlns="http://www.w3.org/2000/svg" viewBox="0 0 216 216">
  <defs>
    <style>
      .cls-1 {
        fill: #772a22;
      }
    </style>
  </defs>
  <path class="cls-1" d="M16.54,115.58c-1.23-12.67,1.75-25.48,8.4-36.08,11.7-18.65,31.71-32.78,51-36.02,2.07-.35,4.13-.52,6.1-.52,10.63,0,18.64,4.91,22.56,13.82.63,1.42,1.03,2.75,1.39,3.93.64,2.11,1.07,3.51,2.46,4.85,2.95,2.86,6.91,4.31,11.76,4.31,4.14,0,8.91-1.05,13.8-3.06,1.53-.62,3.66-1.7,5.91-2.83l.19-.09c9.59-4.84,20.63-6.41,31.05-3.79h0c13.14,3.79,19.01,10.16,21.27,13.54,3.69,5.52,5.08,9.91,6.24,15.63.92,4.54,1.27,7.44.93,12.61-.79,12.11-5.91,23.8-15.66,35.76-17.81,21.84-50.31,35.41-84.82,35.41-5.93,0-11.77-.42-17.37-1.24-5.63-.83-12.32-2.36-19.31-4.77-24.6-8.6-40.85-23.38-45.91-51.44Z"/>
</svg>